<svg width="85" height="55" viewBox="0 0 85 55" fill="none" xmlns="http://www.w3.org/2000/svg">
<path d="M11.1387 54.75L1.63867 47.25C6.13867 42.4167 9.13867 38 10.6387 34C12.1387 30 12.8887 25.9167 12.8887 21.75L18.8887 25.75H0.638673V-3.09944e-06H26.3887V18.25C26.3887 25.0833 25.222 31.4167 22.8887 37.25C20.722 43.0833 16.8053 48.9167 11.1387 54.75ZM69 54.75L59.5 47.25C64 42.4167 67 38 68.5 34C70 30 70.75 25.9167 70.75 21.75L76.75 25.75H58.5V-3.09944e-06H84.25V18.25C84.25 25.0833 83.0833 31.4167 80.75 37.25C78.5833 43.0833 74.6667 48.9167 69 54.75Z" fill="#FFA800"/>
</svg>
