<svg width="186" height="36" viewBox="0 0 186 36" fill="none" xmlns="http://www.w3.org/2000/svg">
<path d="M15.6362 35L2.72415 2.936H2.58015C2.61215 3.768 2.62815 4.584 2.62815 5.384C2.66015 6.184 2.67615 7.048 2.67615 7.976V35H0.900151V0.727998H3.78015L16.3562 31.928H16.5002L29.1242 0.727998H31.9562V35H30.0842V7.688C30.0842 6.984 30.0842 6.232 30.0842 5.432C30.1162 4.632 30.1482 3.816 30.1802 2.984H30.0842L17.1242 35H15.6362ZM49.2643 19.928L59.5843 0.727998H61.6483L50.2243 21.8V35H48.3523V21.992L36.8323 0.727998H38.9443L49.2643 19.928ZM87.2019 0.727998C91.1699 0.727998 94.1619 1.496 96.1779 3.032C98.2259 4.536 99.2499 6.936 99.2499 10.232C99.2499 13.784 98.1459 16.408 95.9379 18.104C93.7299 19.768 90.5939 20.6 86.5299 20.6H80.8659V35H78.9939V0.727998H87.2019ZM86.9619 2.456H80.8659V18.92H86.3379C88.5779 18.92 90.5139 18.664 92.1459 18.152C93.7779 17.64 95.0419 16.76 95.9379 15.512C96.8339 14.232 97.2819 12.504 97.2819 10.328C97.2819 7.544 96.4339 5.544 94.7379 4.328C93.0739 3.08 90.4819 2.456 86.9619 2.456ZM125.855 35L121.055 22.472H106.415L101.519 35H99.551L113.039 0.631999H114.815L127.823 35H125.855ZM120.383 20.744L115.391 7.256C115.231 6.712 115.007 6.056 114.719 5.288C114.431 4.488 114.143 3.672 113.855 2.84C113.631 3.608 113.375 4.392 113.087 5.192C112.799 5.96 112.527 6.648 112.271 7.256L107.087 20.744H120.383ZM144.926 17.96H157.742V33.368C156.142 34.072 154.414 34.6 152.558 34.952C150.734 35.304 148.814 35.48 146.798 35.48C141.294 35.48 137.102 33.96 134.222 30.92C131.374 27.848 129.95 23.528 129.95 17.96C129.95 14.536 130.638 11.496 132.014 8.84C133.39 6.152 135.374 4.04 137.966 2.504C140.59 0.935999 143.71 0.151999 147.326 0.151999C149.182 0.151999 150.942 0.327999 152.606 0.679998C154.27 1.032 155.854 1.56 157.358 2.264L156.542 3.992C155.006 3.256 153.454 2.728 151.886 2.408C150.35 2.056 148.814 1.88 147.278 1.88C144.078 1.88 141.326 2.568 139.022 3.944C136.718 5.32 134.942 7.224 133.694 9.656C132.478 12.056 131.87 14.808 131.87 17.912C131.87 23.352 133.214 27.352 135.902 29.912C138.59 32.472 142.318 33.752 147.086 33.752C148.878 33.752 150.494 33.624 151.934 33.368C153.374 33.08 154.686 32.712 155.87 32.264V19.688H144.926V17.96ZM185.087 35H166.463V0.727998H185.087V2.456H168.335V16.088H184.127V17.816H168.335V33.272H185.087V35Z" fill="black"/>
</svg>
