<svg width="85" height="55" viewBox="0 0 85 55" fill="none" xmlns="http://www.w3.org/2000/svg">
<path d="M73.8613 0.250008L83.3613 7.75C78.8613 12.5833 75.8613 17 74.3613 21C72.8613 25 72.1113 29.0833 72.1113 33.25L66.1113 29.25H84.3613V55H58.6113V36.75C58.6113 29.9167 59.778 23.5833 62.1113 17.75C64.278 11.9167 68.1947 6.08334 73.8613 0.250008ZM16 0.250008L25.5 7.75C21 12.5833 18 17 16.5 21C15 25 14.25 29.0833 14.25 33.25L8.25 29.25H26.5V55H0.749997V36.75C0.749997 29.9167 1.91666 23.5833 4.25 17.75C6.41667 11.9167 10.3333 6.08334 16 0.250008Z" fill="#FFA800"/>
</svg>
